# xmcd
# 
# Track frame offsets:
#   150
#   18843
#   35107
#   51841
#   70657
#   93061
#   111008
#   129033
#   148267
#   164837
#   181810
#   199314
#   215982
#   233821
#   253766
# 
# Disc length: 3676 seconds
# 
# Revision: 1
# Processed by: cddbd v1.5.2PL0 Copyright (c) Steve Scherf et al.
# Submitted via: Synapstar 1.0 
# 
DISCID=da0e5a0f
DTITLE=Various Artist - SC8898
DYEAR=1900
DGENRE=Country
TTITLE0=Big and Rich - Kick My A$$
TTITLE1=Jackson, Alan - Monday Morning Church
TTITLE2=Paisley, Brad - Mud On The Tires
TTITLE3=Twain, Shania - Don't
TTITLE4=Roberts, Julie - The Chance
TTITLE5=Worley, Darryl - Awful Beautiful Life
TTITLE6=Rascal Flatts - Bless The Broken Road
TTITLE7=Larsen, Blaine - How Do You Get That Lonely
TTITLE8=O'Neal, Jamie - Trying To Find Atlantis
TTITLE9=Vassar, Phil - In A Real Love
TTITLE10=Keith, Toby and Krystal - Mockingbird
TTITLE11=Lonestar - Mr Mom
TTITLE12=Bentley, Dierks - How Am I Doin
TTITLE13=Urban, Keith - You're My Better Half
TTITLE14=Evans, Sara - Tonight (Radio Cut)
EXTD=MediaType: Karaoke CD+G Producer: Sound Choice
EXTT0=
EXTT1=
EXTT2=
EXTT3=
EXTT4=
EXTT5=
EXTT6=
EXTT7=
EXTT8=
EXTT9=
EXTT10=
EXTT11=
EXTT12=
EXTT13=
EXTT14=
PLAYORDER=
